<?xml version="1.0" encoding="utf-8"?>
<!-- Generator: Adobe Illustrator 25.0.0, SVG Export Plug-In . SVG Version: 6.00 Build 0)  -->
<svg version="1.1" id="Warstwa_1" xmlns="http://www.w3.org/2000/svg" xmlns:xlink="http://www.w3.org/1999/xlink" x="0px" y="0px"
	 viewBox="0 0 1024 1024" style="enable-background:new 0 0 1024 1024;" xml:space="preserve">
<style type="text/css">
	.st0{fill:#FFFFFF;}
</style>
<path class="st0" d="M363.75,546.07H259.61L206,428.89l-32.16,45.62v71.56H84.12V236h89.73v128.21L259.36,236h85.54l-78.31,113.48
	L363.75,546.07z"/>
<path class="st0" d="M485.74,433.4v112.67h-96.54V236h132.43c33.01,0,58.11,3.79,75.3,11.36c17.19,7.57,30.82,19.16,40.89,34.76
	c10.07,15.6,15.11,33.09,15.11,52.47c0,29.53-10.3,53.38-30.89,71.56c-20.6,18.17-48.08,27.26-82.46,27.26H485.74z M484.38,366.84
	h31.8c28.01,0,42.02-10.3,42.02-30.89c0-19.38-12.95-29.08-38.84-29.08h-34.98V366.84z"/>
<path class="st0" d="M968,546.07H863.86l-53.61-117.18l-32.16,45.62v71.56h-89.73V236h89.73v128.21L863.61,236h85.54l-78.31,113.48
	L968,546.07z"/>
<path class="st0" d="M230.07,651.93v101.95h-27.32c-2.22-7.55-4.66-13.9-7.33-19.06c-11.28,14.57-27.99,21.86-50.11,21.86
	c-23.46,0-42.73-8.2-57.84-24.59c-15.1-16.39-22.66-38.58-22.66-66.57c0-27.19,7.31-50.04,21.92-68.57
	c14.61-18.52,36.36-27.79,65.23-27.79c21.68,0,39.14,5.51,52.37,16.53c13.24,11.02,21.81,26.65,25.72,46.91l-54.11,5.33
	c-2.67-18.92-10.97-28.39-24.92-28.39c-18.3,0-27.45,17.41-27.45,52.24c0,21.06,2.93,34.94,8.8,41.65
	c5.86,6.71,12.97,10.06,21.32,10.06c6.75,0,12.5-2.04,17.26-6.13c4.75-4.09,7.17-9.68,7.26-16.79h-30.12v-38.65H230.07z"/>
<path class="st0" d="M421.44,753.87h-61.9l-26.57-69.57h-17.61v69.57h-55.84V571.96h95.02c20.97,0,37.25,4.91,48.84,14.73
	c11.59,9.82,17.39,22.77,17.39,38.85c0,10.48-2.13,19.75-6.4,27.79c-4.26,8.04-12.88,15.13-25.85,21.26L421.44,753.87z
	 M315.36,645.39h23.85c7.02,0,12.66-1.47,16.92-4.4s6.4-7.24,6.4-12.93c0-11.64-7.15-17.46-21.46-17.46h-25.72V645.39z"/>
<path class="st0" d="M524.32,756.67c-25.59,0-46.44-8.48-62.57-25.45c-16.13-16.97-24.19-39.67-24.19-68.1
	c0-27.19,7.71-49.64,23.12-67.37c15.41-17.72,36.8-26.59,64.17-26.59c25.32,0,45.95,8.35,61.9,25.05c15.95,16.7,23.92,39,23.92,66.9
	c0,28.88-8.04,52.02-24.12,69.43C570.48,747.97,549.73,756.67,524.32,756.67z M524.06,715.36c9.42,0,16.19-4.11,20.32-12.33
	c4.13-8.22,6.2-23.26,6.2-45.11c0-31.63-8.49-47.44-25.45-47.44c-18.3,0-27.45,18.04-27.45,54.11
	C497.67,698.44,506.46,715.36,524.06,715.36z"/>
<path class="st0" d="M781.79,571.96v120.47c0,22.83-6.78,39.25-20.32,49.24c-13.55,10-31.21,14.99-52.97,14.99
	c-22.92,0-41.34-4.8-55.24-14.39c-13.91-9.6-20.86-25.23-20.86-46.91V571.96h56.77v116.88c0,8.71,1.84,15.06,5.51,19.06
	c3.68,4,9.55,6,17.61,6c6.73,0,12.25-1.44,16.54-4.33c4.3-2.89,6.87-6.15,7.71-9.8c0.84-3.64,1.26-10.75,1.26-21.32V571.96H781.79z"
	/>
<path class="st0" d="M868.29,687.77v66.1h-56.64V571.96h77.7c19.37,0,34.09,2.22,44.18,6.66c10.08,4.44,18.08,11.24,23.99,20.39
	c5.91,9.15,8.86,19.41,8.86,30.78c0,17.32-6.04,31.32-18.12,41.98c-12.08,10.66-28.21,15.99-48.38,15.99H868.29z M867.49,648.73
	h18.66c16.44,0,24.65-6.04,24.65-18.12c0-11.37-7.6-17.06-22.79-17.06h-20.52V648.73z"/>
</svg>
