<?xml version="1.0" standalone="no"?>
<!DOCTYPE svg PUBLIC "-//W3C//DTD SVG 20010904//EN"
 "http://www.w3.org/TR/2001/REC-SVG-20010904/DTD/svg10.dtd">
<svg version="1.0" xmlns="http://www.w3.org/2000/svg"
 width="1024.000000pt" height="1024.000000pt" viewBox="0 0 1024.000000 1024.000000"
 preserveAspectRatio="xMidYMid meet">
<metadata>
Created by potrace 1.14, written by Peter Selinger 2001-2017
</metadata>
<g transform="translate(0.000000,1024.000000) scale(0.100000,-0.100000)"
fill="#000000" stroke="none">
<path d="M0 5120 l0 -5120 5120 0 5120 0 0 5120 0 5120 -5120 0 -5120 0 0
-5120z m1740 2123 l0 -638 425 638 425 637 431 0 430 0 -19 -27 c-79 -114
-714 -1037 -735 -1069 l-27 -40 266 -540 c147 -296 365 -738 485 -981 l218
-443 -523 0 -523 0 -264 580 c-145 318 -266 579 -269 580 -3 0 -77 -101 -163
-224 l-157 -224 0 -356 0 -356 -450 0 -450 0 0 1550 0 1550 450 0 450 0 0
-637z m3930 608 c251 -45 414 -120 558 -255 139 -132 224 -274 274 -456 19
-73 23 -108 23 -250 -1 -180 -11 -237 -65 -377 -104 -269 -363 -482 -685 -563
-151 -39 -294 -50 -632 -50 l-283 0 0 -560 0 -560 -485 0 -485 0 0 1551 0
1550 828 -3 c808 -4 830 -4 952 -27z m2112 -607 l3 -637 424 637 424 636 429
0 c235 0 428 -1 428 -3 0 -1 -175 -256 -389 -566 l-389 -564 73 -151 c40 -83
245 -497 455 -921 210 -423 395 -798 411 -832 l28 -63 -522 0 -522 0 -265 580
c-145 319 -267 580 -270 580 -3 -1 -76 -102 -162 -225 l-158 -225 0 -355 0
-355 -450 0 -450 0 0 1550 0 1550 450 0 450 0 2 -636z m-5999 -2728 c220 -65
359 -185 451 -388 32 -71 73 -204 65 -212 -2 -2 -123 -16 -268 -31 -278 -28
-280 -28 -281 17 0 35 -43 131 -73 165 -85 96 -251 98 -330 3 -73 -86 -97
-179 -104 -405 -8 -254 18 -381 95 -467 51 -57 121 -88 199 -88 69 0 101 10
155 47 39 27 88 110 88 150 0 23 0 23 -150 23 l-150 0 0 195 0 195 410 0 410
0 0 -510 0 -510 -140 0 c-121 0 -140 2 -140 16 0 16 -59 164 -65 164 -2 0 -27
-22 -55 -49 -164 -157 -454 -204 -718 -115 -111 37 -207 101 -301 200 -66 69
-91 106 -131 187 -71 146 -91 237 -97 436 -4 105 -1 190 7 240 47 292 188 530
390 656 59 37 184 82 278 100 123 23 344 14 455 -19z m3697 9 c36 -9 112 -39
170 -67 94 -45 114 -61 200 -147 145 -147 213 -284 246 -504 19 -122 14 -311
-11 -431 -72 -346 -292 -591 -610 -678 -115 -31 -354 -31 -470 1 -297 80 -515
303 -594 605 -78 299 -31 650 119 878 126 192 302 310 527 353 101 19 331 13
423 -10z m-1723 -24 c212 -44 363 -164 424 -339 44 -125 33 -311 -26 -435 -31
-66 -126 -159 -205 -201 -30 -16 -56 -30 -58 -32 -2 -1 67 -172 154 -381 86
-208 159 -386 162 -395 4 -17 -15 -18 -305 -18 l-309 0 -131 343 -130 342 -87
3 -86 3 0 -346 0 -345 -285 0 -285 0 0 910 0 910 538 0 c487 0 545 -2 629 -19z
m3135 -608 c3 -613 3 -629 24 -673 28 -62 72 -96 140 -110 95 -20 200 4 258
58 62 58 60 37 64 725 l4 627 219 0 220 0 -3 -682 -3 -683 -28 -82 c-50 -148
-132 -242 -272 -311 -218 -108 -553 -121 -808 -33 -197 69 -310 182 -364 366
-16 54 -18 129 -21 743 l-3 682 285 0 285 0 3 -627z m2249 612 c214 -32 351
-115 444 -270 57 -95 77 -173 77 -295 1 -206 -81 -362 -246 -469 -130 -85
-256 -111 -535 -111 l-191 0 0 -330 0 -330 -290 0 -290 0 0 910 0 910 468 0
c355 0 490 -4 563 -15z"/>
<path d="M4850 6870 l0 -303 223 6 c229 6 283 14 362 55 47 24 95 73 121 122
14 26 18 58 19 125 0 77 -4 98 -25 139 -31 61 -78 100 -155 128 -54 20 -84 22
-302 26 l-243 4 0 -302z"/>
<path d="M5152 4109 c-67 -34 -119 -115 -147 -231 -22 -87 -31 -351 -16 -460
29 -216 103 -318 237 -326 54 -4 73 0 117 21 116 57 156 192 157 524 0 258
-38 393 -129 458 -57 40 -155 47 -219 14z"/>
<path d="M3160 3959 l0 -171 168 4 c162 3 168 4 214 31 58 34 78 69 78 139 0
81 -30 126 -105 155 -18 7 -94 12 -192 12 l-163 1 0 -171z"/>
<path d="M8680 3931 l0 -171 143 0 c154 0 198 12 244 61 44 48 49 153 10 213
-32 48 -79 61 -244 64 l-153 3 0 -170z"/>
</g>
</svg>
